<?xml version="1.0" encoding="UTF-8" standalone="no"?>
<!-- Created with Inkscape (http://www.inkscape.org/) -->

<svg
   width="100"
   height="100"
   viewBox="0 0 26.458333 26.458333"
   version="1.1"
   id="svg1"
   inkscape:version="1.3.2 (091e20e, 2023-11-25, custom)"
   sodipodi:docname="svg-example.svg"
   xmlns:inkscape="http://www.inkscape.org/namespaces/inkscape"
   xmlns:sodipodi="http://sodipodi.sourceforge.net/DTD/sodipodi-0.dtd"
   xmlns="http://www.w3.org/2000/svg"
   xmlns:svg="http://www.w3.org/2000/svg">
  <sodipodi:namedview
     id="namedview1"
     pagecolor="#ffffff"
     bordercolor="#000000"
     borderopacity="0.25"
     inkscape:showpageshadow="2"
     inkscape:pageopacity="0.0"
     inkscape:pagecheckerboard="0"
     inkscape:deskcolor="#d1d1d1"
     inkscape:document-units="mm"
     inkscape:zoom="5.7941077"
     inkscape:cx="40.385856"
     inkscape:cy="52.553389"
     inkscape:window-width="1920"
     inkscape:window-height="1009"
     inkscape:window-x="-8"
     inkscape:window-y="-8"
     inkscape:window-maximized="1"
     inkscape:current-layer="layer1" />
  <defs
     id="defs1" />
  <g
     inkscape:label="Layer 1"
     inkscape:groupmode="layer"
     id="layer1">
    <path
       style="fill:none;fill-opacity:0.254941;stroke:#000000;stroke-width:0.52916667;stroke-dasharray:none"
       d="M 6.5756456,7.077952 C 10.776753,2.9225091 17.124077,1.7352398 15.799815,5.8450183 c -1.324262,4.1097787 -0.136992,5.7536897 0.684963,5.1600557 0.821956,-0.593635 3.287823,-1.050277 2.876845,0.182656 -0.410977,1.232934 -1.73524,1.598248 -2.054889,1.963561 -0.319649,0.365314 0.639299,2.420203 1.232934,2.831181 0.593634,0.410978 2.831181,0.136993 1.506918,0.958948 -1.324262,0.821956 -2.237546,0 -2.100553,0.86762 0.136993,0.86762 1.232934,0.547971 0.228321,1.050277 -1.004612,0.502306 -1.780904,0.365314 -2.146218,-0.04566 -0.365313,-0.410978 -1.324262,-0.958948 -1.324262,0.136993 0,1.09594 0.228321,3.013837 -0.913284,3.607472 -1.141605,0.593635 -5.0230623,0.54797 -4.3380994,-1.780904 0.6849634,-2.328879 2.9681734,-3.10517 1.8265684,-4.612089 C 10.137454,14.65821 9.5438192,12.192343 7.7629151,14.932195 5.9820111,17.672048 7.3976015,19.041974 5.114391,18.402675 2.8311808,17.763376 1.6439114,15.845479 2.7855166,14.97786 3.9271217,14.11024 4.0184501,14.11024 5.7080258,13.607933 7.3976015,13.105627 8.7218633,12.329336 7.7629151,11.461716 6.8039667,10.594096 5.5710333,10.731088 5.2513838,10.457103 4.9317343,10.183118 3.7901292,9.315498 6.5756456,7.077952 Z"
       id="path1" />
  </g>
</svg>
